<mxfile host="drawio-plugin" modified="2021-12-07T09:42:36.021Z" agent="5.0 (X11; Linux x86_64) AppleWebKit/537.36 (KHTML, like Gecko) Chrome/84.0.4147.105 Safari/537.36" version="14.7.4" etag="ojzY9ujwe45HqWyblMrQ" type="embed"><diagram id="2ONlxZZ5OBZvX_VjZV_Y" name="Page-1"><mxGraphModel dx="612" dy="374" grid="1" gridSize="10" guides="1" tooltips="1" connect="1" arrows="1" fold="1" page="1" pageScale="1" pageWidth="827" pageHeight="1169" math="0" shadow="0"><root><mxCell id="0"/><mxCell id="1" parent="0"/><mxCell id="2" value="" style="rounded=0;whiteSpace=wrap;html=1;" vertex="1" parent="1"><mxGeometry x="20" y="300" width="380" height="60" as="geometry"/></mxCell><mxCell id="5" value="" style="shape=table;html=1;whiteSpace=wrap;startSize=0;container=1;collapsible=0;childLayout=tableLayout;" vertex="1" parent="1"><mxGeometry x="140" y="390" width="220" height="180" as="geometry"/></mxCell><mxCell id="6" value="" style="shape=partialRectangle;html=1;whiteSpace=wrap;collapsible=0;dropTarget=0;pointerEvents=0;fillColor=none;top=0;left=0;bottom=0;right=0;points=[[0,0.5],[1,0.5]];portConstraint=eastwest;" vertex="1" parent="5"><mxGeometry width="220" height="30" as="geometry"/></mxCell><mxCell id="7" value="" style="shape=partialRectangle;html=1;whiteSpace=wrap;connectable=0;fillColor=none;top=0;left=0;bottom=0;right=0;overflow=hidden;" vertex="1" parent="6"><mxGeometry width="73" height="30" as="geometry"/></mxCell><mxCell id="8" value="" style="shape=partialRectangle;html=1;whiteSpace=wrap;connectable=0;fillColor=none;top=0;left=0;bottom=0;right=0;overflow=hidden;" vertex="1" parent="6"><mxGeometry x="73" width="74" height="30" as="geometry"/></mxCell><mxCell id="9" value="" style="shape=partialRectangle;html=1;whiteSpace=wrap;connectable=0;fillColor=none;top=0;left=0;bottom=0;right=0;overflow=hidden;" vertex="1" parent="6"><mxGeometry x="147" width="73" height="30" as="geometry"/></mxCell><mxCell id="18" value="" style="shape=partialRectangle;html=1;whiteSpace=wrap;collapsible=0;dropTarget=0;pointerEvents=0;fillColor=none;top=0;left=0;bottom=0;right=0;points=[[0,0.5],[1,0.5]];portConstraint=eastwest;" vertex="1" parent="5"><mxGeometry y="30" width="220" height="30" as="geometry"/></mxCell><mxCell id="19" value="" style="shape=partialRectangle;html=1;whiteSpace=wrap;connectable=0;fillColor=none;top=0;left=0;bottom=0;right=0;overflow=hidden;" vertex="1" parent="18"><mxGeometry width="73" height="30" as="geometry"/></mxCell><mxCell id="20" value="" style="shape=partialRectangle;html=1;whiteSpace=wrap;connectable=0;fillColor=none;top=0;left=0;bottom=0;right=0;overflow=hidden;" vertex="1" parent="18"><mxGeometry x="73" width="74" height="30" as="geometry"/></mxCell><mxCell id="21" value="" style="shape=partialRectangle;html=1;whiteSpace=wrap;connectable=0;fillColor=none;top=0;left=0;bottom=0;right=0;overflow=hidden;" vertex="1" parent="18"><mxGeometry x="147" width="73" height="30" as="geometry"/></mxCell><mxCell id="22" value="" style="shape=partialRectangle;html=1;whiteSpace=wrap;collapsible=0;dropTarget=0;pointerEvents=0;fillColor=none;top=0;left=0;bottom=0;right=0;points=[[0,0.5],[1,0.5]];portConstraint=eastwest;" vertex="1" parent="5"><mxGeometry y="60" width="220" height="30" as="geometry"/></mxCell><mxCell id="23" value="" style="shape=partialRectangle;html=1;whiteSpace=wrap;connectable=0;fillColor=none;top=0;left=0;bottom=0;right=0;overflow=hidden;" vertex="1" parent="22"><mxGeometry width="73" height="30" as="geometry"/></mxCell><mxCell id="24" value="" style="shape=partialRectangle;html=1;whiteSpace=wrap;connectable=0;fillColor=none;top=0;left=0;bottom=0;right=0;overflow=hidden;" vertex="1" parent="22"><mxGeometry x="73" width="74" height="30" as="geometry"/></mxCell><mxCell id="25" value="" style="shape=partialRectangle;html=1;whiteSpace=wrap;connectable=0;fillColor=none;top=0;left=0;bottom=0;right=0;overflow=hidden;" vertex="1" parent="22"><mxGeometry x="147" width="73" height="30" as="geometry"/></mxCell><mxCell id="53" value="" style="shape=partialRectangle;html=1;whiteSpace=wrap;collapsible=0;dropTarget=0;pointerEvents=0;fillColor=none;top=0;left=0;bottom=0;right=0;points=[[0,0.5],[1,0.5]];portConstraint=eastwest;" vertex="1" parent="5"><mxGeometry y="90" width="220" height="30" as="geometry"/></mxCell><mxCell id="54" value="" style="shape=partialRectangle;html=1;whiteSpace=wrap;connectable=0;fillColor=none;top=0;left=0;bottom=0;right=0;overflow=hidden;" vertex="1" parent="53"><mxGeometry width="73" height="30" as="geometry"/></mxCell><mxCell id="55" value="" style="shape=partialRectangle;html=1;whiteSpace=wrap;connectable=0;fillColor=none;top=0;left=0;bottom=0;right=0;overflow=hidden;" vertex="1" parent="53"><mxGeometry x="73" width="74" height="30" as="geometry"/></mxCell><mxCell id="56" value="" style="shape=partialRectangle;html=1;whiteSpace=wrap;connectable=0;fillColor=none;top=0;left=0;bottom=0;right=0;overflow=hidden;" vertex="1" parent="53"><mxGeometry x="147" width="73" height="30" as="geometry"/></mxCell><mxCell id="10" value="" style="shape=partialRectangle;html=1;whiteSpace=wrap;collapsible=0;dropTarget=0;pointerEvents=0;fillColor=none;top=0;left=0;bottom=0;right=0;points=[[0,0.5],[1,0.5]];portConstraint=eastwest;" vertex="1" parent="5"><mxGeometry y="120" width="220" height="30" as="geometry"/></mxCell><mxCell id="11" value="" style="shape=partialRectangle;html=1;whiteSpace=wrap;connectable=0;fillColor=none;top=0;left=0;bottom=0;right=0;overflow=hidden;" vertex="1" parent="10"><mxGeometry width="73" height="30" as="geometry"/></mxCell><mxCell id="12" value="" style="shape=partialRectangle;html=1;whiteSpace=wrap;connectable=0;fillColor=none;top=0;left=0;bottom=0;right=0;overflow=hidden;" vertex="1" parent="10"><mxGeometry x="73" width="74" height="30" as="geometry"/></mxCell><mxCell id="13" value="" style="shape=partialRectangle;html=1;whiteSpace=wrap;connectable=0;fillColor=none;top=0;left=0;bottom=0;right=0;overflow=hidden;" vertex="1" parent="10"><mxGeometry x="147" width="73" height="30" as="geometry"/></mxCell><mxCell id="14" value="" style="shape=partialRectangle;html=1;whiteSpace=wrap;collapsible=0;dropTarget=0;pointerEvents=0;fillColor=none;top=0;left=0;bottom=0;right=0;points=[[0,0.5],[1,0.5]];portConstraint=eastwest;" vertex="1" parent="5"><mxGeometry y="150" width="220" height="30" as="geometry"/></mxCell><mxCell id="15" value="" style="shape=partialRectangle;html=1;whiteSpace=wrap;connectable=0;fillColor=none;top=0;left=0;bottom=0;right=0;overflow=hidden;" vertex="1" parent="14"><mxGeometry width="73" height="30" as="geometry"/></mxCell><mxCell id="16" value="" style="shape=partialRectangle;html=1;whiteSpace=wrap;connectable=0;fillColor=none;top=0;left=0;bottom=0;right=0;overflow=hidden;" vertex="1" parent="14"><mxGeometry x="73" width="74" height="30" as="geometry"/></mxCell><mxCell id="17" value="" style="shape=partialRectangle;html=1;whiteSpace=wrap;connectable=0;fillColor=none;top=0;left=0;bottom=0;right=0;overflow=hidden;" vertex="1" parent="14"><mxGeometry x="147" width="73" height="30" as="geometry"/></mxCell><mxCell id="57" value="Process Bar" style="swimlane;childLayout=stackLayout;horizontal=1;fillColor=none;horizontalStack=1;resizeParent=1;resizeParentMax=0;resizeLast=0;collapsible=0;strokeColor=none;stackBorder=10;stackSpacing=-12;resizable=1;align=center;points=[];" vertex="1" parent="1"><mxGeometry x="150" y="540" width="384" height="100" as="geometry"/></mxCell><mxCell id="58" value="Step 1" style="shape=step;perimeter=stepPerimeter;fixedSize=1;points=[];" vertex="1" parent="57"><mxGeometry x="10" y="33" width="100" height="57" as="geometry"/></mxCell><mxCell id="59" value="Step 2" style="shape=step;perimeter=stepPerimeter;fixedSize=1;points=[];" vertex="1" parent="57"><mxGeometry x="98" y="33" width="100" height="57" as="geometry"/></mxCell><mxCell id="60" value="Step 3" style="shape=step;perimeter=stepPerimeter;fixedSize=1;points=[];" vertex="1" parent="57"><mxGeometry x="186" y="33" width="100" height="57" as="geometry"/></mxCell><mxCell id="61" value="Step 3" style="shape=step;perimeter=stepPerimeter;fixedSize=1;points=[];" vertex="1" parent="57"><mxGeometry x="274" y="33" width="100" height="57" as="geometry"/></mxCell><mxCell id="111" value="" style="rounded=0;whiteSpace=wrap;html=1;" vertex="1" parent="1"><mxGeometry x="460" y="750" width="17" height="23" as="geometry"/></mxCell><mxCell id="112" value="" style="rounded=0;whiteSpace=wrap;html=1;" vertex="1" parent="1"><mxGeometry x="477" y="750" width="17" height="23" as="geometry"/></mxCell><mxCell id="113" value="" style="rounded=0;whiteSpace=wrap;html=1;" vertex="1" parent="1"><mxGeometry x="494" y="750" width="17" height="23" as="geometry"/></mxCell><mxCell id="114" value="" style="rounded=0;whiteSpace=wrap;html=1;" vertex="1" parent="1"><mxGeometry x="511" y="750" width="17" height="23" as="geometry"/></mxCell><mxCell id="115" value="" style="rounded=0;whiteSpace=wrap;html=1;" vertex="1" parent="1"><mxGeometry x="528" y="750" width="17" height="23" as="geometry"/></mxCell><mxCell id="116" value="" style="rounded=0;whiteSpace=wrap;html=1;" vertex="1" parent="1"><mxGeometry x="545" y="750" width="17" height="23" as="geometry"/></mxCell><mxCell id="117" value="" style="rounded=0;whiteSpace=wrap;html=1;" vertex="1" parent="1"><mxGeometry x="562" y="750" width="17" height="23" as="geometry"/></mxCell><mxCell id="118" value="" style="rounded=0;whiteSpace=wrap;html=1;" vertex="1" parent="1"><mxGeometry x="579" y="750" width="17" height="23" as="geometry"/></mxCell><mxCell id="123" value="" style="rounded=0;whiteSpace=wrap;html=1;" vertex="1" parent="1"><mxGeometry x="460" y="820" width="17" height="23" as="geometry"/></mxCell><mxCell id="124" value="" style="rounded=0;whiteSpace=wrap;html=1;" vertex="1" parent="1"><mxGeometry x="477" y="820" width="17" height="23" as="geometry"/></mxCell><mxCell id="125" value="" style="rounded=0;whiteSpace=wrap;html=1;" vertex="1" parent="1"><mxGeometry x="494" y="820" width="17" height="23" as="geometry"/></mxCell><mxCell id="126" value="" style="rounded=0;whiteSpace=wrap;html=1;" vertex="1" parent="1"><mxGeometry x="511" y="820" width="17" height="23" as="geometry"/></mxCell><mxCell id="127" value="" style="rounded=0;whiteSpace=wrap;html=1;" vertex="1" parent="1"><mxGeometry x="528" y="820" width="17" height="23" as="geometry"/></mxCell><mxCell id="128" value="" style="rounded=0;whiteSpace=wrap;html=1;" vertex="1" parent="1"><mxGeometry x="545" y="820" width="17" height="23" as="geometry"/></mxCell><mxCell id="129" value="" style="rounded=0;whiteSpace=wrap;html=1;" vertex="1" parent="1"><mxGeometry x="562" y="820" width="17" height="23" as="geometry"/></mxCell><mxCell id="130" value="" style="rounded=0;whiteSpace=wrap;html=1;" vertex="1" parent="1"><mxGeometry x="579" y="820" width="17" height="23" as="geometry"/></mxCell><mxCell id="131" value="" style="rounded=0;whiteSpace=wrap;html=1;" vertex="1" parent="1"><mxGeometry x="604.5" y="820" width="17" height="23" as="geometry"/></mxCell><mxCell id="132" value="" style="rounded=0;whiteSpace=wrap;html=1;" vertex="1" parent="1"><mxGeometry x="621.5" y="820" width="17" height="23" as="geometry"/></mxCell><mxCell id="133" value="" style="rounded=0;whiteSpace=wrap;html=1;" vertex="1" parent="1"><mxGeometry x="638.5" y="820" width="17" height="23" as="geometry"/></mxCell><mxCell id="134" value="" style="rounded=0;whiteSpace=wrap;html=1;" vertex="1" parent="1"><mxGeometry x="655.5" y="820" width="17" height="23" as="geometry"/></mxCell><mxCell id="135" value="" style="rounded=0;whiteSpace=wrap;html=1;" vertex="1" parent="1"><mxGeometry x="672.5" y="820" width="17" height="23" as="geometry"/></mxCell><mxCell id="136" value="" style="rounded=0;whiteSpace=wrap;html=1;" vertex="1" parent="1"><mxGeometry x="689.5" y="820" width="17" height="23" as="geometry"/></mxCell><mxCell id="137" value="" style="rounded=0;whiteSpace=wrap;html=1;" vertex="1" parent="1"><mxGeometry x="706.5" y="820" width="17" height="23" as="geometry"/></mxCell><mxCell id="138" value="" style="rounded=0;whiteSpace=wrap;html=1;" vertex="1" parent="1"><mxGeometry x="723.5" y="820" width="17" height="23" as="geometry"/></mxCell><mxCell id="139" value="8bit" style="text;html=1;align=center;verticalAlign=middle;resizable=0;points=[];autosize=1;strokeColor=none;" vertex="1" parent="1"><mxGeometry x="464" y="710" width="30" height="20" as="geometry"/></mxCell><mxCell id="141" value="16bit" style="text;html=1;align=center;verticalAlign=middle;resizable=0;points=[];autosize=1;strokeColor=none;" vertex="1" parent="1"><mxGeometry x="460" y="790" width="40" height="20" as="geometry"/></mxCell><mxCell id="142" value="" style="rounded=0;whiteSpace=wrap;html=1;" vertex="1" parent="1"><mxGeometry x="460" y="920" width="17" height="23" as="geometry"/></mxCell><mxCell id="143" value="" style="rounded=0;whiteSpace=wrap;html=1;" vertex="1" parent="1"><mxGeometry x="477" y="920" width="17" height="23" as="geometry"/></mxCell><mxCell id="144" value="" style="rounded=0;whiteSpace=wrap;html=1;" vertex="1" parent="1"><mxGeometry x="494" y="920" width="17" height="23" as="geometry"/></mxCell><mxCell id="145" value="" style="rounded=0;whiteSpace=wrap;html=1;" vertex="1" parent="1"><mxGeometry x="511" y="920" width="17" height="23" as="geometry"/></mxCell><mxCell id="146" value="" style="rounded=0;whiteSpace=wrap;html=1;" vertex="1" parent="1"><mxGeometry x="528" y="920" width="17" height="23" as="geometry"/></mxCell><mxCell id="147" value="" style="rounded=0;whiteSpace=wrap;html=1;" vertex="1" parent="1"><mxGeometry x="545" y="920" width="17" height="23" as="geometry"/></mxCell><mxCell id="148" value="" style="rounded=0;whiteSpace=wrap;html=1;" vertex="1" parent="1"><mxGeometry x="562" y="920" width="17" height="23" as="geometry"/></mxCell><mxCell id="149" value="" style="rounded=0;whiteSpace=wrap;html=1;" vertex="1" parent="1"><mxGeometry x="579" y="920" width="17" height="23" as="geometry"/></mxCell><mxCell id="150" value="" style="rounded=0;whiteSpace=wrap;html=1;" vertex="1" parent="1"><mxGeometry x="604.5" y="920" width="17" height="23" as="geometry"/></mxCell><mxCell id="151" value="" style="rounded=0;whiteSpace=wrap;html=1;" vertex="1" parent="1"><mxGeometry x="621.5" y="920" width="17" height="23" as="geometry"/></mxCell><mxCell id="152" value="" style="rounded=0;whiteSpace=wrap;html=1;" vertex="1" parent="1"><mxGeometry x="638.5" y="920" width="17" height="23" as="geometry"/></mxCell><mxCell id="153" value="" style="rounded=0;whiteSpace=wrap;html=1;" vertex="1" parent="1"><mxGeometry x="655.5" y="920" width="17" height="23" as="geometry"/></mxCell><mxCell id="154" value="" style="rounded=0;whiteSpace=wrap;html=1;" vertex="1" parent="1"><mxGeometry x="672.5" y="920" width="17" height="23" as="geometry"/></mxCell><mxCell id="155" value="" style="rounded=0;whiteSpace=wrap;html=1;" vertex="1" parent="1"><mxGeometry x="689.5" y="920" width="17" height="23" as="geometry"/></mxCell><mxCell id="156" value="" style="rounded=0;whiteSpace=wrap;html=1;" vertex="1" parent="1"><mxGeometry x="706.5" y="920" width="17" height="23" as="geometry"/></mxCell><mxCell id="157" value="" style="rounded=0;whiteSpace=wrap;html=1;" vertex="1" parent="1"><mxGeometry x="723.5" y="920" width="17" height="23" as="geometry"/></mxCell><mxCell id="158" value="" style="rounded=0;whiteSpace=wrap;html=1;" vertex="1" parent="1"><mxGeometry x="750" y="920" width="17" height="23" as="geometry"/></mxCell><mxCell id="159" value="" style="rounded=0;whiteSpace=wrap;html=1;" vertex="1" parent="1"><mxGeometry x="767" y="920" width="17" height="23" as="geometry"/></mxCell><mxCell id="160" value="" style="rounded=0;whiteSpace=wrap;html=1;" vertex="1" parent="1"><mxGeometry x="784" y="920" width="17" height="23" as="geometry"/></mxCell><mxCell id="161" value="" style="rounded=0;whiteSpace=wrap;html=1;" vertex="1" parent="1"><mxGeometry x="801" y="920" width="17" height="23" as="geometry"/></mxCell><mxCell id="162" value="" style="rounded=0;whiteSpace=wrap;html=1;" vertex="1" parent="1"><mxGeometry x="818" y="920" width="17" height="23" as="geometry"/></mxCell><mxCell id="163" value="" style="rounded=0;whiteSpace=wrap;html=1;" vertex="1" parent="1"><mxGeometry x="835" y="920" width="17" height="23" as="geometry"/></mxCell><mxCell id="164" value="" style="rounded=0;whiteSpace=wrap;html=1;" vertex="1" parent="1"><mxGeometry x="852" y="920" width="17" height="23" as="geometry"/></mxCell><mxCell id="165" value="" style="rounded=0;whiteSpace=wrap;html=1;" vertex="1" parent="1"><mxGeometry x="869" y="920" width="17" height="23" as="geometry"/></mxCell><mxCell id="166" value="" style="rounded=0;whiteSpace=wrap;html=1;" vertex="1" parent="1"><mxGeometry x="895" y="920" width="17" height="23" as="geometry"/></mxCell><mxCell id="167" value="" style="rounded=0;whiteSpace=wrap;html=1;" vertex="1" parent="1"><mxGeometry x="912" y="920" width="17" height="23" as="geometry"/></mxCell><mxCell id="168" value="" style="rounded=0;whiteSpace=wrap;html=1;" vertex="1" parent="1"><mxGeometry x="929" y="920" width="17" height="23" as="geometry"/></mxCell><mxCell id="169" value="" style="rounded=0;whiteSpace=wrap;html=1;" vertex="1" parent="1"><mxGeometry x="946" y="920" width="17" height="23" as="geometry"/></mxCell><mxCell id="170" value="" style="rounded=0;whiteSpace=wrap;html=1;" vertex="1" parent="1"><mxGeometry x="963" y="920" width="17" height="23" as="geometry"/></mxCell><mxCell id="171" value="" style="rounded=0;whiteSpace=wrap;html=1;" vertex="1" parent="1"><mxGeometry x="980" y="920" width="17" height="23" as="geometry"/></mxCell><mxCell id="172" value="" style="rounded=0;whiteSpace=wrap;html=1;" vertex="1" parent="1"><mxGeometry x="997" y="920" width="17" height="23" as="geometry"/></mxCell><mxCell id="173" value="" style="rounded=0;whiteSpace=wrap;html=1;" vertex="1" parent="1"><mxGeometry x="1014" y="920" width="17" height="23" as="geometry"/></mxCell><mxCell id="175" value="32bit" style="text;html=1;align=center;verticalAlign=middle;resizable=0;points=[];autosize=1;strokeColor=none;" vertex="1" parent="1"><mxGeometry x="460" y="890" width="40" height="20" as="geometry"/></mxCell><mxCell id="176" value="" style="rounded=0;whiteSpace=wrap;html=1;" vertex="1" parent="1"><mxGeometry x="460" y="970" width="17" height="23" as="geometry"/></mxCell><mxCell id="177" value="" style="rounded=0;whiteSpace=wrap;html=1;" vertex="1" parent="1"><mxGeometry x="477" y="970" width="17" height="23" as="geometry"/></mxCell><mxCell id="178" value="" style="rounded=0;whiteSpace=wrap;html=1;" vertex="1" parent="1"><mxGeometry x="494" y="970" width="17" height="23" as="geometry"/></mxCell><mxCell id="179" value="" style="rounded=0;whiteSpace=wrap;html=1;" vertex="1" parent="1"><mxGeometry x="511" y="970" width="17" height="23" as="geometry"/></mxCell><mxCell id="180" value="" style="rounded=0;whiteSpace=wrap;html=1;" vertex="1" parent="1"><mxGeometry x="528" y="970" width="17" height="23" as="geometry"/></mxCell><mxCell id="181" value="" style="rounded=0;whiteSpace=wrap;html=1;" vertex="1" parent="1"><mxGeometry x="545" y="970" width="17" height="23" as="geometry"/></mxCell><mxCell id="182" value="" style="rounded=0;whiteSpace=wrap;html=1;" vertex="1" parent="1"><mxGeometry x="562" y="970" width="17" height="23" as="geometry"/></mxCell><mxCell id="183" value="" style="rounded=0;whiteSpace=wrap;html=1;" vertex="1" parent="1"><mxGeometry x="579" y="970" width="17" height="23" as="geometry"/></mxCell><mxCell id="184" value="" style="rounded=0;whiteSpace=wrap;html=1;" vertex="1" parent="1"><mxGeometry x="596" y="970" width="17" height="23" as="geometry"/></mxCell><mxCell id="185" value="" style="rounded=0;whiteSpace=wrap;html=1;" vertex="1" parent="1"><mxGeometry x="613" y="970" width="17" height="23" as="geometry"/></mxCell><mxCell id="186" value="" style="rounded=0;whiteSpace=wrap;html=1;" vertex="1" parent="1"><mxGeometry x="630" y="970" width="17" height="23" as="geometry"/></mxCell><mxCell id="187" value="" style="rounded=0;whiteSpace=wrap;html=1;" vertex="1" parent="1"><mxGeometry x="647" y="970" width="17" height="23" as="geometry"/></mxCell><mxCell id="188" value="" style="rounded=0;whiteSpace=wrap;html=1;" vertex="1" parent="1"><mxGeometry x="664" y="970" width="17" height="23" as="geometry"/></mxCell><mxCell id="189" value="" style="rounded=0;whiteSpace=wrap;html=1;" vertex="1" parent="1"><mxGeometry x="681" y="970" width="17" height="23" as="geometry"/></mxCell><mxCell id="190" value="" style="rounded=0;whiteSpace=wrap;html=1;" vertex="1" parent="1"><mxGeometry x="698" y="970" width="17" height="23" as="geometry"/></mxCell><mxCell id="191" value="" style="rounded=0;whiteSpace=wrap;html=1;" vertex="1" parent="1"><mxGeometry x="715" y="970" width="17" height="23" as="geometry"/></mxCell><mxCell id="192" value="" style="rounded=0;whiteSpace=wrap;html=1;" vertex="1" parent="1"><mxGeometry x="732" y="970" width="17" height="23" as="geometry"/></mxCell><mxCell id="193" value="" style="rounded=0;whiteSpace=wrap;html=1;" vertex="1" parent="1"><mxGeometry x="749" y="970" width="17" height="23" as="geometry"/></mxCell><mxCell id="194" value="" style="rounded=0;whiteSpace=wrap;html=1;" vertex="1" parent="1"><mxGeometry x="766" y="970" width="17" height="23" as="geometry"/></mxCell><mxCell id="195" value="" style="rounded=0;whiteSpace=wrap;html=1;" vertex="1" parent="1"><mxGeometry x="783" y="970" width="17" height="23" as="geometry"/></mxCell><mxCell id="196" value="" style="rounded=0;whiteSpace=wrap;html=1;" vertex="1" parent="1"><mxGeometry x="800" y="970" width="17" height="23" as="geometry"/></mxCell><mxCell id="197" value="" style="rounded=0;whiteSpace=wrap;html=1;" vertex="1" parent="1"><mxGeometry x="817" y="970" width="17" height="23" as="geometry"/></mxCell><mxCell id="198" value="" style="rounded=0;whiteSpace=wrap;html=1;" vertex="1" parent="1"><mxGeometry x="834" y="970" width="17" height="23" as="geometry"/></mxCell><mxCell id="199" value="" style="rounded=0;whiteSpace=wrap;html=1;" vertex="1" parent="1"><mxGeometry x="851" y="970" width="17" height="23" as="geometry"/></mxCell><mxCell id="200" value="" style="rounded=0;whiteSpace=wrap;html=1;" vertex="1" parent="1"><mxGeometry x="868" y="970" width="17" height="23" as="geometry"/></mxCell><mxCell id="201" value="" style="rounded=0;whiteSpace=wrap;html=1;" vertex="1" parent="1"><mxGeometry x="885" y="970" width="17" height="23" as="geometry"/></mxCell><mxCell id="202" value="" style="rounded=0;whiteSpace=wrap;html=1;" vertex="1" parent="1"><mxGeometry x="902" y="970" width="17" height="23" as="geometry"/></mxCell><mxCell id="203" value="" style="rounded=0;whiteSpace=wrap;html=1;" vertex="1" parent="1"><mxGeometry x="919" y="970" width="17" height="23" as="geometry"/></mxCell><mxCell id="204" value="" style="rounded=0;whiteSpace=wrap;html=1;" vertex="1" parent="1"><mxGeometry x="936" y="970" width="17" height="23" as="geometry"/></mxCell><mxCell id="205" value="" style="rounded=0;whiteSpace=wrap;html=1;" vertex="1" parent="1"><mxGeometry x="953" y="970" width="17" height="23" as="geometry"/></mxCell><mxCell id="206" value="" style="rounded=0;whiteSpace=wrap;html=1;" vertex="1" parent="1"><mxGeometry x="970" y="970" width="17" height="23" as="geometry"/></mxCell><mxCell id="207" value="" style="rounded=0;whiteSpace=wrap;html=1;" vertex="1" parent="1"><mxGeometry x="987" y="970" width="17" height="23" as="geometry"/></mxCell><mxCell id="208" value="" style="rounded=0;whiteSpace=wrap;html=1;" vertex="1" parent="1"><mxGeometry x="460" y="860" width="17" height="23" as="geometry"/></mxCell><mxCell id="209" value="" style="rounded=0;whiteSpace=wrap;html=1;" vertex="1" parent="1"><mxGeometry x="477" y="860" width="17" height="23" as="geometry"/></mxCell><mxCell id="210" value="" style="rounded=0;whiteSpace=wrap;html=1;" vertex="1" parent="1"><mxGeometry x="494" y="860" width="17" height="23" as="geometry"/></mxCell><mxCell id="211" value="" style="rounded=0;whiteSpace=wrap;html=1;" vertex="1" parent="1"><mxGeometry x="511" y="860" width="17" height="23" as="geometry"/></mxCell><mxCell id="212" value="" style="rounded=0;whiteSpace=wrap;html=1;" vertex="1" parent="1"><mxGeometry x="528" y="860" width="17" height="23" as="geometry"/></mxCell><mxCell id="213" value="" style="rounded=0;whiteSpace=wrap;html=1;" vertex="1" parent="1"><mxGeometry x="545" y="860" width="17" height="23" as="geometry"/></mxCell><mxCell id="214" value="" style="rounded=0;whiteSpace=wrap;html=1;" vertex="1" parent="1"><mxGeometry x="562" y="860" width="17" height="23" as="geometry"/></mxCell><mxCell id="215" value="" style="rounded=0;whiteSpace=wrap;html=1;" vertex="1" parent="1"><mxGeometry x="579" y="860" width="17" height="23" as="geometry"/></mxCell><mxCell id="216" value="" style="rounded=0;whiteSpace=wrap;html=1;" vertex="1" parent="1"><mxGeometry x="596" y="860" width="17" height="23" as="geometry"/></mxCell><mxCell id="217" value="" style="rounded=0;whiteSpace=wrap;html=1;" vertex="1" parent="1"><mxGeometry x="613" y="860" width="17" height="23" as="geometry"/></mxCell><mxCell id="218" value="" style="rounded=0;whiteSpace=wrap;html=1;" vertex="1" parent="1"><mxGeometry x="630" y="860" width="17" height="23" as="geometry"/></mxCell><mxCell id="219" value="" style="rounded=0;whiteSpace=wrap;html=1;" vertex="1" parent="1"><mxGeometry x="647" y="860" width="17" height="23" as="geometry"/></mxCell><mxCell id="220" value="" style="rounded=0;whiteSpace=wrap;html=1;" vertex="1" parent="1"><mxGeometry x="664" y="860" width="17" height="23" as="geometry"/></mxCell><mxCell id="221" value="" style="rounded=0;whiteSpace=wrap;html=1;" vertex="1" parent="1"><mxGeometry x="681" y="860" width="17" height="23" as="geometry"/></mxCell><mxCell id="222" value="" style="rounded=0;whiteSpace=wrap;html=1;" vertex="1" parent="1"><mxGeometry x="698" y="860" width="17" height="23" as="geometry"/></mxCell><mxCell id="223" value="" style="rounded=0;whiteSpace=wrap;html=1;" vertex="1" parent="1"><mxGeometry x="715" y="860" width="17" height="23" as="geometry"/></mxCell><mxCell id="224" value="" style="rounded=0;whiteSpace=wrap;html=1;" vertex="1" parent="1"><mxGeometry x="460" y="1050" width="17" height="23" as="geometry"/></mxCell><mxCell id="225" value="" style="rounded=0;whiteSpace=wrap;html=1;" vertex="1" parent="1"><mxGeometry x="477" y="1050" width="17" height="23" as="geometry"/></mxCell><mxCell id="226" value="" style="rounded=0;whiteSpace=wrap;html=1;" vertex="1" parent="1"><mxGeometry x="494" y="1050" width="17" height="23" as="geometry"/></mxCell><mxCell id="227" value="" style="rounded=0;whiteSpace=wrap;html=1;" vertex="1" parent="1"><mxGeometry x="511" y="1050" width="17" height="23" as="geometry"/></mxCell><mxCell id="228" value="" style="rounded=0;whiteSpace=wrap;html=1;" vertex="1" parent="1"><mxGeometry x="528" y="1050" width="17" height="23" as="geometry"/></mxCell><mxCell id="229" value="" style="rounded=0;whiteSpace=wrap;html=1;" vertex="1" parent="1"><mxGeometry x="545" y="1050" width="17" height="23" as="geometry"/></mxCell><mxCell id="230" value="" style="rounded=0;whiteSpace=wrap;html=1;" vertex="1" parent="1"><mxGeometry x="562" y="1050" width="17" height="23" as="geometry"/></mxCell><mxCell id="231" value="" style="rounded=0;whiteSpace=wrap;html=1;" vertex="1" parent="1"><mxGeometry x="579" y="1050" width="17" height="23" as="geometry"/></mxCell><mxCell id="232" value="" style="rounded=0;whiteSpace=wrap;html=1;" vertex="1" parent="1"><mxGeometry x="596" y="1050" width="17" height="23" as="geometry"/></mxCell><mxCell id="233" value="" style="rounded=0;whiteSpace=wrap;html=1;" vertex="1" parent="1"><mxGeometry x="613" y="1050" width="17" height="23" as="geometry"/></mxCell><mxCell id="234" value="" style="rounded=0;whiteSpace=wrap;html=1;" vertex="1" parent="1"><mxGeometry x="630" y="1050" width="17" height="23" as="geometry"/></mxCell><mxCell id="235" value="" style="rounded=0;whiteSpace=wrap;html=1;" vertex="1" parent="1"><mxGeometry x="647" y="1050" width="17" height="23" as="geometry"/></mxCell><mxCell id="236" value="" style="rounded=0;whiteSpace=wrap;html=1;" vertex="1" parent="1"><mxGeometry x="664" y="1050" width="17" height="23" as="geometry"/></mxCell><mxCell id="237" value="" style="rounded=0;whiteSpace=wrap;html=1;" vertex="1" parent="1"><mxGeometry x="681" y="1050" width="17" height="23" as="geometry"/></mxCell><mxCell id="238" value="" style="rounded=0;whiteSpace=wrap;html=1;" vertex="1" parent="1"><mxGeometry x="698" y="1050" width="17" height="23" as="geometry"/></mxCell><mxCell id="239" value="3" style="rounded=0;whiteSpace=wrap;html=1;" vertex="1" parent="1"><mxGeometry x="715" y="1050" width="17" height="23" as="geometry"/></mxCell><mxCell id="240" value="" style="rounded=0;whiteSpace=wrap;html=1;" vertex="1" parent="1"><mxGeometry x="1005" y="1050" width="17" height="23" as="geometry"/></mxCell><mxCell id="241" value="1" style="rounded=0;whiteSpace=wrap;html=1;" vertex="1" parent="1"><mxGeometry x="750" y="1050" width="17" height="23" as="geometry"/></mxCell><mxCell id="242" value="4" style="rounded=0;whiteSpace=wrap;html=1;" vertex="1" parent="1"><mxGeometry x="767" y="1050" width="17" height="23" as="geometry"/></mxCell><mxCell id="243" value="" style="rounded=0;whiteSpace=wrap;html=1;" vertex="1" parent="1"><mxGeometry x="784" y="1050" width="17" height="23" as="geometry"/></mxCell><mxCell id="244" value="" style="rounded=0;whiteSpace=wrap;html=1;" vertex="1" parent="1"><mxGeometry x="801" y="1050" width="17" height="23" as="geometry"/></mxCell><mxCell id="245" value="" style="rounded=0;whiteSpace=wrap;html=1;" vertex="1" parent="1"><mxGeometry x="818" y="1050" width="17" height="23" as="geometry"/></mxCell><mxCell id="246" value="" style="rounded=0;whiteSpace=wrap;html=1;" vertex="1" parent="1"><mxGeometry x="835" y="1050" width="17" height="23" as="geometry"/></mxCell><mxCell id="247" value="" style="rounded=0;whiteSpace=wrap;html=1;" vertex="1" parent="1"><mxGeometry x="852" y="1050" width="17" height="23" as="geometry"/></mxCell><mxCell id="248" value="" style="rounded=0;whiteSpace=wrap;html=1;" vertex="1" parent="1"><mxGeometry x="869" y="1050" width="17" height="23" as="geometry"/></mxCell><mxCell id="249" value="" style="rounded=0;whiteSpace=wrap;html=1;" vertex="1" parent="1"><mxGeometry x="886" y="1050" width="17" height="23" as="geometry"/></mxCell><mxCell id="250" value="" style="rounded=0;whiteSpace=wrap;html=1;" vertex="1" parent="1"><mxGeometry x="903" y="1050" width="17" height="23" as="geometry"/></mxCell><mxCell id="251" value="" style="rounded=0;whiteSpace=wrap;html=1;" vertex="1" parent="1"><mxGeometry x="920" y="1050" width="17" height="23" as="geometry"/></mxCell><mxCell id="252" value="" style="rounded=0;whiteSpace=wrap;html=1;" vertex="1" parent="1"><mxGeometry x="937" y="1050" width="17" height="23" as="geometry"/></mxCell><mxCell id="253" value="" style="rounded=0;whiteSpace=wrap;html=1;" vertex="1" parent="1"><mxGeometry x="954" y="1050" width="17" height="23" as="geometry"/></mxCell><mxCell id="254" value="" style="rounded=0;whiteSpace=wrap;html=1;" vertex="1" parent="1"><mxGeometry x="971" y="1050" width="17" height="23" as="geometry"/></mxCell><mxCell id="255" value="" style="rounded=0;whiteSpace=wrap;html=1;" vertex="1" parent="1"><mxGeometry x="988" y="1050" width="17" height="23" as="geometry"/></mxCell><mxCell id="256" value="" style="shape=curlyBracket;whiteSpace=wrap;html=1;rounded=1;sketch=0;rotation=-90;" vertex="1" parent="1"><mxGeometry x="585.75" y="953.75" width="20" height="272.5" as="geometry"/></mxCell><mxCell id="257" value="整数部分" style="text;html=1;align=center;verticalAlign=middle;resizable=0;points=[];autosize=1;strokeColor=none;" vertex="1" parent="1"><mxGeometry x="564.5" y="1100" width="60" height="20" as="geometry"/></mxCell><mxCell id="258" value="" style="shape=curlyBracket;whiteSpace=wrap;html=1;rounded=1;sketch=0;rotation=-90;" vertex="1" parent="1"><mxGeometry x="876.5" y="952.5" width="20" height="275" as="geometry"/></mxCell><mxCell id="259" value="小数部分" style="text;html=1;align=center;verticalAlign=middle;resizable=0;points=[];autosize=1;strokeColor=none;" vertex="1" parent="1"><mxGeometry x="859" y="1100" width="60" height="20" as="geometry"/></mxCell><mxCell id="260" value="3.14" style="text;html=1;align=center;verticalAlign=middle;resizable=0;points=[];autosize=1;strokeColor=none;" vertex="1" parent="1"><mxGeometry x="464" y="1020" width="40" height="20" as="geometry"/></mxCell><mxCell id="261" value="&lt;b&gt;.&lt;/b&gt;" style="text;html=1;align=center;verticalAlign=middle;resizable=0;points=[];autosize=1;strokeColor=none;" vertex="1" parent="1"><mxGeometry x="730.5" y="1050" width="20" height="20" as="geometry"/></mxCell><mxCell id="262" value="" style="rounded=0;whiteSpace=wrap;html=1;" vertex="1" parent="1"><mxGeometry x="464" y="1146.25" width="17" height="23" as="geometry"/></mxCell><mxCell id="263" value="" style="rounded=0;whiteSpace=wrap;html=1;" vertex="1" parent="1"><mxGeometry x="481" y="1146.25" width="17" height="23" as="geometry"/></mxCell><mxCell id="264" value="" style="rounded=0;whiteSpace=wrap;html=1;" vertex="1" parent="1"><mxGeometry x="498" y="1146.25" width="17" height="23" as="geometry"/></mxCell><mxCell id="265" value="" style="rounded=0;whiteSpace=wrap;html=1;" vertex="1" parent="1"><mxGeometry x="515" y="1146.25" width="17" height="23" as="geometry"/></mxCell><mxCell id="266" value="" style="rounded=0;whiteSpace=wrap;html=1;" vertex="1" parent="1"><mxGeometry x="532" y="1146.25" width="17" height="23" as="geometry"/></mxCell><mxCell id="267" value="" style="rounded=0;whiteSpace=wrap;html=1;" vertex="1" parent="1"><mxGeometry x="549" y="1146.25" width="17" height="23" as="geometry"/></mxCell><mxCell id="268" value="" style="rounded=0;whiteSpace=wrap;html=1;" vertex="1" parent="1"><mxGeometry x="566" y="1146.25" width="17" height="23" as="geometry"/></mxCell><mxCell id="269" value="" style="rounded=0;whiteSpace=wrap;html=1;" vertex="1" parent="1"><mxGeometry x="583" y="1146.25" width="17" height="23" as="geometry"/></mxCell><mxCell id="270" value="" style="rounded=0;whiteSpace=wrap;html=1;" vertex="1" parent="1"><mxGeometry x="600" y="1146.25" width="17" height="23" as="geometry"/></mxCell><mxCell id="271" value="" style="rounded=0;whiteSpace=wrap;html=1;" vertex="1" parent="1"><mxGeometry x="617" y="1146.25" width="17" height="23" as="geometry"/></mxCell><mxCell id="272" value="" style="rounded=0;whiteSpace=wrap;html=1;" vertex="1" parent="1"><mxGeometry x="634" y="1146.25" width="17" height="23" as="geometry"/></mxCell><mxCell id="273" value="" style="rounded=0;whiteSpace=wrap;html=1;" vertex="1" parent="1"><mxGeometry x="651" y="1146.25" width="17" height="23" as="geometry"/></mxCell><mxCell id="274" value="" style="rounded=0;whiteSpace=wrap;html=1;" vertex="1" parent="1"><mxGeometry x="668" y="1146.25" width="17" height="23" as="geometry"/></mxCell><mxCell id="275" value="" style="rounded=0;whiteSpace=wrap;html=1;" vertex="1" parent="1"><mxGeometry x="685" y="1146.25" width="17" height="23" as="geometry"/></mxCell><mxCell id="276" value="1" style="rounded=0;whiteSpace=wrap;html=1;" vertex="1" parent="1"><mxGeometry x="702" y="1146.25" width="17" height="23" as="geometry"/></mxCell><mxCell id="277" value="1" style="rounded=0;whiteSpace=wrap;html=1;" vertex="1" parent="1"><mxGeometry x="719" y="1146.25" width="17" height="23" as="geometry"/></mxCell><mxCell id="278" value="0" style="rounded=0;whiteSpace=wrap;html=1;" vertex="1" parent="1"><mxGeometry x="754" y="1146.25" width="17" height="23" as="geometry"/></mxCell><mxCell id="279" value="0" style="rounded=0;whiteSpace=wrap;html=1;" vertex="1" parent="1"><mxGeometry x="771" y="1146.25" width="17" height="23" as="geometry"/></mxCell><mxCell id="280" value="1" style="rounded=0;whiteSpace=wrap;html=1;" vertex="1" parent="1"><mxGeometry x="788" y="1146.25" width="17" height="23" as="geometry"/></mxCell><mxCell id="281" value="" style="rounded=0;whiteSpace=wrap;html=1;" vertex="1" parent="1"><mxGeometry x="805" y="1146.25" width="17" height="23" as="geometry"/></mxCell><mxCell id="282" value="" style="rounded=0;whiteSpace=wrap;html=1;" vertex="1" parent="1"><mxGeometry x="822" y="1146.25" width="17" height="23" as="geometry"/></mxCell><mxCell id="283" value="" style="rounded=0;whiteSpace=wrap;html=1;" vertex="1" parent="1"><mxGeometry x="839" y="1146.25" width="17" height="23" as="geometry"/></mxCell><mxCell id="284" value="" style="rounded=0;whiteSpace=wrap;html=1;" vertex="1" parent="1"><mxGeometry x="856" y="1146.25" width="17" height="23" as="geometry"/></mxCell><mxCell id="285" value="" style="rounded=0;whiteSpace=wrap;html=1;" vertex="1" parent="1"><mxGeometry x="873" y="1146.25" width="17" height="23" as="geometry"/></mxCell><mxCell id="286" value="" style="rounded=0;whiteSpace=wrap;html=1;" vertex="1" parent="1"><mxGeometry x="890" y="1146.25" width="17" height="23" as="geometry"/></mxCell><mxCell id="287" value="" style="rounded=0;whiteSpace=wrap;html=1;" vertex="1" parent="1"><mxGeometry x="907" y="1146.25" width="17" height="23" as="geometry"/></mxCell><mxCell id="288" value="" style="rounded=0;whiteSpace=wrap;html=1;" vertex="1" parent="1"><mxGeometry x="924" y="1146.25" width="17" height="23" as="geometry"/></mxCell><mxCell id="289" value="" style="rounded=0;whiteSpace=wrap;html=1;" vertex="1" parent="1"><mxGeometry x="941" y="1146.25" width="17" height="23" as="geometry"/></mxCell><mxCell id="290" value="" style="rounded=0;whiteSpace=wrap;html=1;" vertex="1" parent="1"><mxGeometry x="958" y="1146.25" width="17" height="23" as="geometry"/></mxCell><mxCell id="291" value="" style="rounded=0;whiteSpace=wrap;html=1;" vertex="1" parent="1"><mxGeometry x="975" y="1146.25" width="17" height="23" as="geometry"/></mxCell><mxCell id="292" value="" style="rounded=0;whiteSpace=wrap;html=1;" vertex="1" parent="1"><mxGeometry x="992" y="1146.25" width="17" height="23" as="geometry"/></mxCell><mxCell id="293" value="" style="shape=curlyBracket;whiteSpace=wrap;html=1;rounded=1;sketch=0;rotation=-90;" vertex="1" parent="1"><mxGeometry x="589.75" y="1050" width="20" height="272.5" as="geometry"/></mxCell><mxCell id="294" value="3.14" style="text;html=1;align=center;verticalAlign=middle;resizable=0;points=[];autosize=1;strokeColor=none;" vertex="1" parent="1"><mxGeometry x="468" y="1116.25" width="40" height="20" as="geometry"/></mxCell><mxCell id="295" value="&lt;b&gt;.&lt;/b&gt;" style="text;html=1;align=center;verticalAlign=middle;resizable=0;points=[];autosize=1;strokeColor=none;" vertex="1" parent="1"><mxGeometry x="734.5" y="1146.25" width="20" height="20" as="geometry"/></mxCell></root></mxGraphModel></diagram></mxfile>